<svg xmlns="http://www.w3.org/2000/svg" viewBox="0 0 500 500"><defs><style>.cls-1{isolation:isolate;}.cls-2,.cls-4,.cls-7,.cls-9{fill:#fff;}.cls-13,.cls-3{fill:#006837;}.cls-4,.cls-5{opacity:0.25;}.cls-4,.cls-7,.cls-9{mix-blend-mode:overlay;}.cls-5{mix-blend-mode:multiply;}.cls-6{fill:#d9e021;}.cls-12,.cls-8{fill:#8cc63f;}.cls-9{opacity:0.5;}.cls-10{fill:#39b54a;}.cls-11{fill:#009245;}.cls-12{font-size:36px;font-family:Montserrat-BlackItalic, Montserrat BlackItalic;font-weight:800;}.cls-12,.cls-13{font-style:italic;}.cls-13{font-size:16px;font-family:Montserrat-MediumItalic, Montserrat MediumItalic;font-weight:500;letter-spacing:0.16em;}.cls-14{letter-spacing:0.2em;}.cls-15{letter-spacing:0.19em;}</style></defs><g class="cls-1"><g id="BACKGROUND"><rect class="cls-2" width="500" height="500"/></g><g id="OBJECTS"><path class="cls-3" d="M232.14,266.77A9.6,9.6,0,1,1,214.25,262a8.87,8.87,0,0,1,1.51-2,9.58,9.58,0,0,1,13.56,0,9.22,9.22,0,0,1,1.52,2A9.66,9.66,0,0,1,232.14,266.77Z"/><path class="cls-4" d="M214.25,271.57a8.87,8.87,0,0,1,1.51-2,9.6,9.6,0,0,1,13.56,0,9.22,9.22,0,0,1,1.52,2,9.22,9.22,0,0,1-1.52,2,9.6,9.6,0,0,1-13.56,0A8.87,8.87,0,0,1,214.25,271.57Z"/><path class="cls-5" d="M230.84,262H214.25a8.87,8.87,0,0,1,1.51-2,9.58,9.58,0,0,1,13.56,0A9.22,9.22,0,0,1,230.84,262Z"/><path class="cls-3" d="M287.05,266.77a9.59,9.59,0,1,1-19.18,0,9.44,9.44,0,0,1,1.29-4.79,9.22,9.22,0,0,1,1.52-2,9.58,9.58,0,0,1,13.56,0,8.87,8.87,0,0,1,1.51,2A9.45,9.45,0,0,1,287.05,266.77Z"/><path class="cls-4" d="M269.17,271.57a8.87,8.87,0,0,1,1.51-2,9.6,9.6,0,0,1,13.56,0,9.22,9.22,0,0,1,1.52,2,9.22,9.22,0,0,1-1.52,2,9.6,9.6,0,0,1-13.56,0A8.87,8.87,0,0,1,269.17,271.57Z"/><path class="cls-5" d="M285.75,262H269.16a9.22,9.22,0,0,1,1.52-2,9.58,9.58,0,0,1,13.56,0A8.87,8.87,0,0,1,285.75,262Z"/><path class="cls-3" d="M191.21,161.25l-4.68,4.8-4.68,4.8-13.2,13.49a19.09,19.09,0,0,1-5.55-13.49l4.68-4.8,4.69-4.8,13.19-13.49A19.09,19.09,0,0,1,191.21,161.25Z"/><polygon class="cls-5" points="191.21 161.25 186.53 166.05 167.78 166.05 172.47 161.25 191.21 161.25"/><path class="cls-3" d="M320.24,218.81l-21.08,4.8-21.08,4.79-74.23,16.9h0a19.2,19.2,0,0,1-10.08-16.9l42.17-9.59,74.23-16.89A19.19,19.19,0,0,1,320.24,218.81Z"/><polygon class="cls-5" points="320.24 218.81 299.16 223.61 214.84 223.61 235.93 218.81 320.24 218.81"/><path class="cls-3" d="M336.9,190l-26.18,4.8-26.2,4.79-94,17.23a19.19,19.19,0,0,1-10.73-17.23L206,194.83l26.19-4.8,94-17.22A19.17,19.17,0,0,1,336.9,190Z"/><polygon class="cls-5" points="336.9 190.03 310.72 194.83 205.95 194.83 232.13 190.03 336.9 190.03"/><path class="cls-6" d="M191.21,161.25H144.58a9.59,9.59,0,0,1,0-19.18H172a19.15,19.15,0,0,1,13.63,5.69,19.15,19.15,0,0,1,5.55,13.49Z"/><path class="cls-7" d="M188.64,151.66H135a9.59,9.59,0,0,1,9.59-9.59H172a19.15,19.15,0,0,1,13.63,5.69A18.92,18.92,0,0,1,188.64,151.66Z"/><path class="cls-8" d="M336.9,190H182.29a19.18,19.18,0,0,1-19.19-19.18H317.71A19.18,19.18,0,0,1,336.9,190Z"/><path class="cls-9" d="M334.33,180.44H165.67a19.09,19.09,0,0,1-2.57-9.59H317.71a19.17,19.17,0,0,1,16.62,9.59Z"/><path class="cls-10" d="M320.24,218.81H198.94a19.18,19.18,0,0,1-19.18-19.19h121.3a19.11,19.11,0,0,1,9.1,2.3,19.4,19.4,0,0,1,7.52,7.3A19.06,19.06,0,0,1,320.24,218.81Z"/><path class="cls-9" d="M317.68,209.22H182.33a19,19,0,0,1-2.57-9.6h121.3a19.11,19.11,0,0,1,9.1,2.3A19.4,19.4,0,0,1,317.68,209.22Z"/><path class="cls-11" d="M306.24,238a9.59,9.59,0,0,1-9.6,9.59H213a19,19,0,0,1-9.1-2.29h0a19.37,19.37,0,0,1-7.51-7.3,19.1,19.1,0,0,1-2.57-9.6H296.64A9.6,9.6,0,0,1,306.24,238Z"/><path class="cls-9" d="M306.24,238H196.33a19.1,19.1,0,0,1-2.57-9.6H296.64A9.6,9.6,0,0,1,306.24,238Z"/><text class="cls-12" transform="translate(151.45 328.86)">KENA<tspan class="cls-10" x="82.94" y="0"> </tspan><tspan class="cls-11" x="90.57" y="0">BECHA</tspan></text><text class="cls-13" transform="translate(144.09 353.72)">Y<tspan class="cls-14" x="11.28" y="0">OUR PERSONAL </tspan><tspan class="cls-15" x="161.42" y="0">M</tspan><tspan class="cls-14" x="177.33" y="0">ALL</tspan></text></g></g></svg>